<svg width="26" height="17" viewBox="0 0 26 17" fill="none" xmlns="http://www.w3.org/2000/svg">
<path d="M24.0803 7H1.60535C0.718746 7 0 7.67158 0 8.5C0 9.32842 0.718746 10 1.60535 10H24.0803C24.9669 10 25.6856 9.32842 25.6856 8.5C25.6856 7.67158 24.9669 7 24.0803 7Z" fill="#025595"/>
<path d="M1.60535 3.00001H24.0803C24.9669 3.00001 25.6856 2.32843 25.6856 1.5C25.6856 0.67158 24.9669 0 24.0803 0H1.60535C0.718746 0 0 0.67158 0 1.5C0 2.32843 0.718746 3.00001 1.60535 3.00001Z" fill="#025595"/>
<path d="M24.0803 14H1.60535C0.718746 14 0 14.6716 0 15.5C0 16.3284 0.718746 17 1.60535 17H24.0803C24.9669 17 25.6856 16.3284 25.6856 15.5C25.6856 14.6716 24.9669 14 24.0803 14Z" fill="#025595"/>
</svg>
