<svg width="43" height="40" viewBox="0 0 43 40" fill="none" xmlns="http://www.w3.org/2000/svg">
<g clip-path="url(#clip0_0_42)">
<path d="M34.7946 1.99558H31.8749C30.5499 1.99707 29.4762 3.01711 29.4746 4.27584V6.70941L22.7805 0.662069C21.8167 -0.22069 20.2905 -0.22069 19.3267 0.662069L1.9494 16.3606C1.16157 17.0717 0.912855 18.1688 1.32269 19.1249C1.69148 20.0545 2.62958 20.6684 3.67526 20.6644H4.20863V37.6663C4.22179 38.9656 5.33952 40.0096 6.70719 40H35.3982C36.7659 40.0096 37.8836 38.9656 37.8968 37.6663V20.6644H38.4302C39.4758 20.6684 40.414 20.0545 40.7827 19.1249C41.1926 18.1687 40.9439 17.0717 40.156 16.3606L37.195 13.685V4.27584C37.1933 3.01711 36.1195 1.99707 34.7946 1.99558ZM30.8783 4.27584C30.8791 3.75328 31.3248 3.3298 31.8749 3.32909H34.7946C35.3446 3.3298 35.7904 3.75328 35.7911 4.27584V12.4168L30.8783 7.9776V4.27584ZM39.4786 18.6309C39.3174 19.0494 38.8992 19.3286 38.4301 19.3309H37.1948C36.8072 19.3309 36.493 19.6295 36.493 19.9977V37.6663C36.4804 38.2293 35.9908 38.6765 35.3982 38.6664H6.70711C6.11444 38.6765 5.62491 38.2293 5.61224 37.6663V19.9977C5.61224 19.6294 5.29798 19.3309 4.91044 19.3309H3.67518C3.20605 19.3286 2.78791 19.0494 2.62662 18.6309C2.42816 18.1812 2.54355 17.6618 2.91646 17.3267L20.296 1.62288C20.7159 1.22877 21.3914 1.22877 21.8112 1.62288L39.1894 17.3247C39.5629 17.6604 39.678 18.1807 39.4786 18.6309Z" fill="#025595"/>
<path fill-rule="evenodd" clip-rule="evenodd" d="M9.29787 24.7083C9.29787 30.6038 14.3475 35.4007 20.5533 35.4007C26.7591 35.4007 31.8085 30.6038 31.8085 24.7083C31.8085 24.3564 31.7911 24.0084 31.7564 23.6653C31.7154 23.2648 31.342 22.9731 30.9184 23.0101C30.4968 23.0489 30.1879 23.4047 30.2287 23.8062C30.2583 24.1026 30.2737 24.4039 30.2737 24.7083C30.2737 29.7998 25.9128 33.9426 20.5533 33.9426C15.1936 33.9426 10.8327 29.7998 10.8327 24.7083C10.8327 19.6166 15.1936 15.4737 20.5533 15.4737C22.4165 15.4737 24.2296 15.9781 25.7951 16.9337C26.1522 17.1514 26.626 17.0533 26.8561 16.7141C27.0854 16.3749 26.9811 15.9238 26.6249 15.706C24.8108 14.5998 22.7112 14.0156 20.5533 14.0156C14.3475 14.0156 9.29787 18.8128 9.29787 24.7083ZM21.29 26.9242C21.4393 27.0669 21.6358 27.138 21.8322 27.138C22.0287 27.138 22.2251 27.0669 22.3755 26.9251L33.6309 16.2324C33.9307 15.9477 33.9307 15.486 33.6309 15.2012C33.3311 14.9164 32.8451 14.9164 32.5452 15.2012L21.8333 25.3777L17.771 21.5185C17.4713 21.2337 16.9853 21.2337 16.6855 21.5185C16.3857 21.8033 16.3857 22.265 16.6855 22.55L21.29 26.9242Z" fill="#025595"/>
</g>
<defs>
<clipPath id="clip0_0_42">
<rect width="42.1053" height="40" fill="white"/>
</clipPath>
</defs>
</svg>
