<svg width="30" height="30" viewBox="0 0 30 30" fill="none" xmlns="http://www.w3.org/2000/svg">
<path opacity="0.4" d="M14.9767 27.375C21.8695 27.375 27.4572 21.7786 27.4572 14.875C27.4572 7.97144 21.8695 2.375 14.9767 2.375C8.08384 2.375 2.49609 7.97144 2.49609 14.875C2.49609 21.7786 8.08384 27.375 14.9767 27.375Z" fill="#025595"/>
<path d="M17.7969 15L15.9123 14.3375V10.1H16.3616C17.3725 10.1 18.1962 10.9875 18.1962 12.075C18.1962 12.5875 18.6206 13.0125 19.1323 13.0125C19.644 13.0125 20.0683 12.5875 20.0683 12.075C20.0683 9.95 18.4084 8.225 16.3616 8.225H15.9123V7.5C15.9123 6.9875 15.488 6.5625 14.9763 6.5625C14.4646 6.5625 14.0402 6.9875 14.0402 7.5V8.225H13.229C11.3819 8.225 9.8717 9.7875 9.8717 11.7C9.8717 13.9375 11.1697 14.65 12.1556 15L14.0402 15.6625V19.8875H13.5909C12.58 19.8875 11.7563 19 11.7563 17.9125C11.7563 17.4 11.3319 16.975 10.8202 16.975C10.3085 16.975 9.88418 17.4 9.88418 17.9125C9.88418 20.0375 11.5441 21.7625 13.5909 21.7625H14.0402V22.5C14.0402 23.0125 14.4646 23.4375 14.9763 23.4375C15.488 23.4375 15.9123 23.0125 15.9123 22.5V21.775H16.7235C18.5707 21.775 20.0808 20.2125 20.0808 18.3C20.0683 16.05 18.7704 15.3375 17.7969 15ZM12.7797 13.2375C12.1432 13.0125 11.7563 12.8 11.7563 11.7125C11.7563 10.825 12.4177 10.1125 13.2415 10.1125H14.0527V13.6875L12.7797 13.2375ZM16.7235 19.9H15.9123V16.325L17.1728 16.7625C17.8094 16.9875 18.1962 17.2 18.1962 18.2875C18.1962 19.175 17.5348 19.9 16.7235 19.9Z" fill="#025595"/>
</svg>
