<svg width="30" height="30" viewBox="0 0 30 30" fill="none" xmlns="http://www.w3.org/2000/svg">
<path d="M27.4563 28.4375H2.49607C1.98438 28.4375 1.56006 28.0125 1.56006 27.5C1.56006 26.9875 1.98438 26.5625 2.49607 26.5625H27.4563C27.9679 26.5625 28.3923 26.9875 28.3923 27.5C28.3923 28.0125 27.9679 28.4375 27.4563 28.4375Z" fill="#025595"/>
<path opacity="0.4" d="M26.2092 12.4748V27.4999H3.68178L3.74418 12.4623C3.74418 11.6998 4.09364 10.9749 4.70518 10.4999L13.4416 3.6999C14.3402 2.9874 15.6132 2.9874 16.5118 3.6999L18.1842 4.99987L23.7131 9.29988L25.2482 10.4999C25.8598 10.9749 26.2092 11.6999 26.2092 12.4748Z" fill="#025595"/>
<path d="M16.2243 21.25H13.7282C12.6923 21.25 11.8561 22.0875 11.8561 23.125V27.5H18.0964V23.125C18.0964 22.0875 17.2602 21.25 16.2243 21.25Z" fill="#025595"/>
<path d="M11.8562 17.1875H9.36012C8.67369 17.1875 8.11206 16.625 8.11206 15.9375V14.0625C8.11206 13.375 8.67369 12.8125 9.36012 12.8125H11.8562C12.5427 12.8125 13.1043 13.375 13.1043 14.0625V15.9375C13.1043 16.625 12.5427 17.1875 11.8562 17.1875Z" fill="#025595"/>
<path d="M20.5923 17.1875H18.0962C17.4097 17.1875 16.8481 16.625 16.8481 15.9375V14.0625C16.8481 13.375 17.4097 12.8125 18.0962 12.8125H20.5923C21.2787 12.8125 21.8403 13.375 21.8403 14.0625V15.9375C21.8403 16.625 21.2787 17.1875 20.5923 17.1875Z" fill="#025595"/>
<path d="M23.7124 9.3L18.1835 5H22.4394C23.1258 5 23.6874 5.54999 23.6874 6.23749L23.7124 9.3Z" fill="#025595"/>
</svg>
