<svg width="43" height="40" viewBox="0 0 43 40" fill="none" xmlns="http://www.w3.org/2000/svg">
<g clip-path="url(#clip0_0_19)">
<path d="M34.7945 1.99558H31.8749C30.5499 1.99707 29.4761 3.01711 29.4746 4.27584V6.70941L22.7805 0.662069C21.8167 -0.22069 20.2905 -0.22069 19.3267 0.662069L1.94939 16.3606C1.16155 17.0717 0.91284 18.1688 1.32267 19.1249C1.69146 20.0545 2.62957 20.6684 3.67524 20.6644H4.20861V37.6663C4.22177 38.9656 5.3395 40.0096 6.70717 40H35.3982C36.7659 40.0096 37.8836 38.9656 37.8968 37.6663V20.6644H38.4301C39.4758 20.6684 40.4139 20.0545 40.7827 19.1249C41.1925 18.1687 40.9438 17.0717 40.156 16.3606L37.195 13.685V4.27584C37.1932 3.01711 36.1195 1.99707 34.7945 1.99558ZM30.8783 4.27584C30.879 3.75328 31.3248 3.3298 31.8749 3.32909H34.7945C35.3446 3.3298 35.7904 3.75328 35.7911 4.27584V12.4168L30.8783 7.9776V4.27584ZM39.4786 18.6309C39.3173 19.0494 38.8992 19.3286 38.43 19.3309H37.1948C36.8072 19.3309 36.493 19.6295 36.493 19.9977V37.6663C36.4803 38.2293 35.9908 38.6765 35.3981 38.6664H6.70709C6.11442 38.6765 5.62489 38.2293 5.61223 37.6663V19.9977C5.61223 19.6294 5.29796 19.3309 4.91042 19.3309H3.67516C3.20603 19.3286 2.78789 19.0494 2.6266 18.6309C2.42814 18.1812 2.54354 17.6618 2.91644 17.3267L20.296 1.62288C20.7158 1.22877 21.3913 1.22877 21.8112 1.62288L39.1893 17.3247C39.5628 17.6604 39.678 18.1807 39.4786 18.6309Z" fill="#025595"/>
<path d="M10.525 23.9982C10.5222 27.6801 12.6511 31.0653 16.0654 32.8078C19.4797 34.5502 23.6261 34.3676 26.856 32.3325L31.4979 36.743C32.0289 37.2473 32.8027 37.4442 33.5279 37.2595C34.253 37.0747 34.8194 36.5366 35.0136 35.8476C35.2079 35.1587 35.0005 34.4237 34.4695 33.9194L29.8254 29.5115C32.3172 25.943 32.1408 21.2633 29.3869 17.8732C26.633 14.483 21.9127 13.1346 17.6473 14.5196C13.3819 15.9047 10.5183 19.7159 10.525 23.9982ZM33.4807 34.8661C33.6135 34.9886 33.6884 35.1569 33.6884 35.3327C33.6884 35.5085 33.6135 35.6769 33.4807 35.7994C33.2073 36.0567 32.7667 36.0567 32.4933 35.7994L27.9791 31.511C28.3294 31.2195 28.659 30.9064 28.9659 30.5735L33.4807 34.8661ZM30.1765 23.9982C30.1765 28.7852 26.0915 32.6658 21.0526 32.6658C16.0137 32.6658 11.9287 28.7852 11.9287 23.9982C11.9287 19.2111 16.0137 15.3305 21.0526 15.3305C26.0892 15.336 30.1706 19.2134 30.1765 23.9982Z" fill="#025595"/>
<path fill-rule="evenodd" clip-rule="evenodd" d="M17.9161 17.2967C15.1314 18.4769 13.3363 21.1012 13.3325 23.9981C13.3325 24.3664 13.6467 24.6648 14.0343 24.6648C14.4219 24.6648 14.7361 24.3663 14.7361 23.9981C14.7398 21.6274 16.2091 19.48 18.4881 18.5141C18.722 18.4201 18.8841 18.2133 18.912 17.9735C18.94 17.7337 18.8294 17.4982 18.6228 17.3579C18.4163 17.2175 18.146 17.1941 17.9161 17.2967Z" fill="#025595"/>
<path d="M21.0526 17.9975C21.4402 17.9975 21.7544 17.699 21.7544 17.3308C21.7544 16.9626 21.4402 16.6641 21.0526 16.6641C20.665 16.6641 20.3508 16.9626 20.3508 17.3308C20.3508 17.699 20.665 17.9975 21.0526 17.9975Z" fill="#025595"/>
</g>
<defs>
<clipPath id="clip0_0_19">
<rect width="42.1053" height="40" fill="white"/>
</clipPath>
</defs>
</svg>
